<svg data-logo="logo" xmlns="http://www.w3.org/2000/svg" viewBox="0 0 34 40">
        <g style="opacity: 1;" id="logogram" transform="translate(0, 0) rotate(0)"><path d="M19.2614 5.82192V0H0.905273V40H19.2614V34.1781C15.5012 34.1781 11.8949 32.6842 9.23601 30.0253C6.57711 27.3664 5.08335 23.7603 5.08335 20C5.08335 16.2397 6.57711 12.6334 9.23601 9.97459C11.8949 7.31568 15.5012 5.82192 19.2614 5.82192Z" fill="#1A88FF"></path><path d="M19.2614 5.8219V34.1781C23.0217 34.1781 26.628 32.6842 29.2869 30.0253C31.9458 27.3664 33.4395 23.7603 33.4395 20C33.4395 16.2397 31.9458 12.6334 29.2869 9.97457C26.628 7.31567 23.0217 5.8219 19.2614 5.8219Z" fill="#FFFFFF"></path></g>
        <g style="opacity: 1;" id="logotype" transform="translate(34, 20)"></g>
        
      </svg>